<?xml version="1.0" standalone="no"?>
<!DOCTYPE svg PUBLIC "-//W3C//DTD SVG 20010904//EN"
 "http://www.w3.org/TR/2001/REC-SVG-20010904/DTD/svg10.dtd">
<svg version="1.0" xmlns="http://www.w3.org/2000/svg"
 width="300.000000pt" height="320.000000pt" viewBox="0 0 300.000000 320.000000"
 preserveAspectRatio="xMidYMid meet">
<metadata>
Created by potrace 1.10, written by Peter Selinger 2001-2011
</metadata>
<g transform="translate(0.000000,320.000000) scale(0.100000,-0.100000)"
fill="#000000" stroke="none">
<path d="M1545 2943 c-334 -30 -582 -155 -716 -360 -124 -191 -199 -505 -155
-655 9 -31 16 -65 16 -75 0 -10 -43 -88 -95 -173 -59 -96 -95 -164 -95 -181 0
-41 43 -85 103 -105 89 -29 104 -57 70 -130 l-18 -36 33 -28 c29 -24 31 -29
17 -40 -21 -18 -19 -54 6 -76 42 -38 52 -72 38 -122 -29 -103 -8 -182 58 -224
36 -22 45 -23 203 -20 96 1 176 -2 190 -8 38 -16 51 -45 70 -155 l17 -100 591
-3 c326 -1 592 0 592 3 0 3 -32 124 -70 269 -80 300 -92 375 -79 478 13 103
30 150 125 343 125 256 158 375 157 580 -1 142 -28 259 -90 385 -40 81 -61
109 -142 191 -82 81 -110 102 -191 142 -181 88 -394 122 -635 100z m300 -43
c132 -16 198 -35 313 -91 86 -42 115 -62 185 -132 71 -70 91 -97 134 -187 77
-157 103 -310 82 -482 -17 -142 -52 -247 -144 -438 -47 -96 -96 -208 -110
-249 -28 -85 -28 -84 -16 -76 6 3 9 -3 8 -14 0 -10 -6 -17 -13 -14 -6 2 -14
-5 -17 -16 -6 -23 8 -29 16 -8 3 7 6 5 6 -5 1 -10 -3 -18 -9 -18 -14 0 -2
-120 22 -220 11 -47 40 -158 64 -248 24 -90 44 -174 44 -188 l0 -25 -109 2
c-60 1 -113 -1 -119 -5 -5 -3 -12 -3 -14 0 -3 3 -193 5 -421 4 -477 -1 -426
-13 -446 108 -9 51 -21 82 -39 104 -44 53 -76 60 -236 53 -157 -6 -196 2 -228
46 -22 29 -26 75 -13 162 7 49 5 60 -11 78 -17 19 -17 20 0 13 14 -5 17 -3 14
7 -3 8 -12 13 -21 11 -8 -1 -19 3 -23 9 -4 8 -3 9 4 5 7 -4 12 -3 12 3 0 5 -4
13 -10 16 -5 3 -10 25 -10 47 0 25 -7 49 -17 60 -14 15 -15 25 -6 65 19 80 -9
122 -100 154 -50 18 -81 51 -74 81 4 13 38 75 78 138 109 175 113 185 94 265
-57 248 76 632 276 794 104 84 292 161 436 177 29 4 55 10 57 13 8 11 271 12
361 1z"/>
<path d="M0 185 c0 -8 5 -16 10 -16 6 -1 15 -3 20 -4 6 -1 21 -3 35 -4 22 -1
24 -4 18 -31 -4 -22 0 -36 12 -50 17 -19 30 -20 208 -19 175 1 191 3 209 21
15 15 18 28 14 49 l-5 29 1005 0 c852 0 1005 -2 995 -14 -17 -21 -4 -42 38
-58 27 -11 69 -14 154 -12 86 2 117 0 117 -9 0 -8 3 -8 9 1 4 8 14 13 22 12
24 -4 43 0 36 7 -4 3 -2 12 5 20 6 7 8 16 4 20 -3 3 -6 1 -6 -5 0 -7 -34 -11
-100 -11 -88 0 -100 2 -100 17 0 15 2 15 10 2 6 -10 10 -11 10 -2 0 17 106 17
113 -1 4 -9 6 -9 6 1 1 7 14 12 31 12 17 0 30 5 30 10 0 6 23 10 50 10 43 0
50 3 50 20 0 20 -7 20 -1500 20 -1327 0 -1500 -2 -1500 -15z m184 -48 c3 3 6
-5 7 -18 0 -15 3 -19 6 -9 17 42 63 51 64 11 l0 -26 10 24 c7 18 12 21 23 12
7 -6 16 -8 20 -4 3 4 15 8 26 10 15 2 20 -3 20 -22 0 -17 -5 -25 -17 -25 -14
0 -15 2 -5 9 11 7 11 9 -2 14 -11 4 -16 1 -16 -11 0 -15 -2 -15 -10 -2 -6 10
-10 11 -10 3 0 -20 -80 -14 -81 6 -1 13 -2 13 -6 -1 -3 -11 -14 -18 -29 -18
-16 0 -24 6 -25 18 -1 16 -2 16 -6 0 -3 -12 -14 -18 -31 -18 -19 0 -23 3 -13
9 11 7 11 9 0 13 -7 2 -9 10 -5 16 10 17 24 15 29 -5 3 -13 5 -12 6 5 1 19 4
21 20 13 10 -6 21 -7 25 -4z m224 0 c10 4 13 1 10 -8 -3 -8 -13 -13 -22 -12
-11 0 -15 -4 -12 -13 3 -8 1 -14 -4 -14 -6 0 -10 14 -10 32 0 24 3 29 11 21 6
-6 18 -9 27 -6z m92 0 c11 3 20 0 20 -6 0 -6 -3 -10 -7 -10 -20 3 -24 -2 -13
-15 9 -12 8 -15 -9 -13 -12 1 -21 7 -21 14 0 7 -7 13 -15 13 -18 0 -20 -16 -2
-23 6 -3 -2 -6 -20 -6 l-32 -1 24 26 c13 14 29 23 34 19 6 -3 11 0 12 7 0 9 2
9 5 2 3 -7 14 -10 24 -7z m2130 -13 c0 -10 -14 -14 -50 -14 -35 0 -50 4 -50
13 0 10 15 14 50 14 37 1 50 -3 50 -13z m35 6 c-3 -6 1 -7 9 -4 9 3 16 1 16
-5 0 -6 -11 -11 -25 -11 -16 0 -25 6 -25 15 0 8 7 15 16 15 8 0 12 -4 9 -10z"/>
<path d="M2593 48 c-2 -5 62 -8 143 -8 81 0 145 2 142 5 -8 8 -280 11 -285 3z"/>
</g>
</svg>
